<?xml version="1.0" encoding="utf-8"?>
<svg version="1.1" id="Слой_1" xmlns="http://www.w3.org/2000/svg" xmlns:xlink="http://www.w3.org/1999/xlink" x="0px" y="0px"
	 viewBox="175 223 271 293" xml:space="preserve">
<style type="text/css">
	.st0{fill:#020203;stroke:#020203;stroke-width:4;paint-order:stroke fill;}
</style>
<g>
	<g>
		<path class="st0" d="M258.36,343.04c9.12-2.04,18.33-9.59,18.33-21.88l-8.38,0c0,8.35-6.37,12.74-11.83,13.96
			c-5.47,1.22-13.2-0.02-16.97-7.54l-7.54,3.55c4.47,8.91,12.93,12.52,20.83,12.52C254.7,343.65,256.58,343.44,258.36,343.04z"/>
	</g>
	<g>
		<path class="st0" d="M364.84,334.18c-5.54-1.17-12-5.54-12-13.99l-8.38,0c0,12.43,9.34,19.97,18.59,21.93
			c1.7,0.36,3.49,0.55,5.3,0.55c8.07,0,16.69-3.75,21.06-12.98l-7.62-3.38C378.16,334,370.39,335.35,364.84,334.18z"/>
	</g>
	<g>
		<path class="st0" d="M446,354.36c0-71.09-58.56-129.13-131.37-131.26V223h-8.38v0.1C233.5,225.29,175,283.31,175,354.36
			c0,1.93,0.08,3.84,0.16,5.76l-0.15,0.01c0.13,1.67,0.3,3.33,0.48,4.98c1.32,15.89,5.51,31.22,12.61,45.68l0.39-0.18
			c10.47,22.31,26.74,43.2,48.4,61.98v0.04h0.05c2.67,2.31,5.41,4.59,8.24,6.84c5.03,3.99,10.02,7.65,14.87,10.99v0.23h0.35
			c25.77,17.68,47.36,26.22,48.44,26.64l1.72,0.67l1.67-0.78c1.36-0.64,33.71-15.93,66.58-42.87c19.4-15.89,34.87-32.53,46-49.45
			c14.06-21.38,21.19-43.27,21.19-65.07h-0.15C445.93,358.01,446,356.19,446,354.36z M407.26,402.62
			c4.31,4.92,8.24,10.18,11.76,15.77c-3.6,5.67-7.57,11.1-11.76,16.25V402.62z M367.85,363.52c-8.44-7.78-18.58-13.88-29.9-17.71
			v-57.81c23.7,18.42,47.78,23.92,64.61,25.09c2.87,0.2,5.62,0.29,8.23,0.29c2.81,0,5.42-0.11,7.87-0.27
			c9.96,15.62,16.42,33.67,18.35,53.2c-1.31,13.26-4.78,26.1-10.41,38.31l0.1,0.04c-0.94,1.94-1.94,3.86-2.98,5.75
			C409.91,390.02,390.74,373.9,367.85,363.52z M384.1,415.43c0.01,0,0.03,0,0.04,0l-0.04,0.05V415.43z M382.06,407.11
			c-27.8-2.56-53.59-22.37-62.96-47.78h18.86v-4.89c23.44,8.95,40.83,28.92,45.95,52.84C383.3,407.22,382.7,407.17,382.06,407.11z
			 M236.9,415.5l-0.09-0.11c0.03,0,0.06,0,0.09-0.01V415.5z M237.12,407.23c5.17-23.75,23.06-44.14,46.39-52.96v0.63v4.43h18.44
			c-0.01,0.03-0.02,0.05-0.03,0.08C292.03,385.91,265.3,405.37,237.12,407.23z M213.74,436.1c-4.2-5.53-8.17-11.42-11.78-17.68
			c3.52-5.59,7.46-10.87,11.78-15.79V436.1z M197.5,410.08c-6.65-13.39-11.55-28.29-13.53-44.71l0.1,0.01
			c2.05-19.18,8.55-36.9,18.41-52.3c2.49,0.17,5.16,0.29,8.03,0.29c2.61,0,5.36-0.09,8.23-0.29c16.87-1.17,41.02-6.69,64.77-25.22
			v57.78c-11.19,3.72-21.42,9.76-30.1,17.74C230.52,373.72,211.35,389.78,197.5,410.08z M310.5,255.02
			c42.15,0,79.49,19.51,102.62,50.14c-19.11,0.38-47.76-4.05-74.93-27.58h-6.36l-0.03,0.03h-2.22v73.59h-37.68v-1.01v-72.94h-2.75
			l-0.04-0.04h-5.59c-19.01,16.63-40.85,25.99-65.01,27.75c-3.75,0.27-7.27,0.33-10.52,0.25
			C231.18,274.58,268.56,255.02,310.5,255.02z M407.26,286.32v-11.75c12.18,13.86,21.26,30.34,26.18,48.45
			C426.99,309.53,418.18,297.11,407.26,286.32z M398.88,278.72c-4.7-3.92-9.63-7.5-14.78-10.73v-14.01
			c5.23,3.62,10.17,7.6,14.78,11.93V278.72z M375.72,263.11c-4.79-2.55-9.72-4.81-14.78-6.78v-15.07
			c5.11,2.15,10.04,4.61,14.78,7.36V263.11z M352.56,253.38c-4.84-1.53-9.77-2.79-14.78-3.78v-15.59c5.04,1.07,9.97,2.44,14.78,4.07
			V253.38z M268.44,253.38v-15.29c4.8-1.64,9.73-3,14.78-4.07v15.59C278.21,250.6,273.28,251.85,268.44,253.38z M260.06,256.35
			c-5.05,1.97-9.99,4.21-14.78,6.76v-14.47c4.73-2.75,9.67-5.21,14.78-7.36V256.35z M236.9,267.99
			c-5.14,3.23-10.08,6.81-14.78,10.74V265.9c4.6-4.32,9.54-8.31,14.78-11.93V267.99z M213.74,286.34
			c-10.9,10.77-19.72,23.17-26.17,36.65c4.92-18.1,14-34.57,26.17-48.42V286.34z M283.21,397.62v97.75
			c-4.62-2.68-9.6-5.74-14.78-9.18v-79.3C273.65,404.32,278.61,401.19,283.21,397.62z M291.59,390.23
			c5.94-5.98,10.97-12.81,14.78-20.28v137.43c-3.57-1.62-8.66-4.05-14.78-7.33V390.23z M314.75,370.14
			c3.72,7.28,8.68,14.11,14.65,20.15v108.34c-5.99,3.52-11.03,6.27-14.65,8.16V370.14z M337.79,397.7
			c4.62,3.58,9.58,6.69,14.78,9.25v76.87c-5.17,3.58-10.14,6.83-14.78,9.72V397.7z M329.41,232.5v15.68
			c-4.87-0.66-9.81-1.04-14.78-1.18v-15.76C319.63,231.38,324.57,231.79,329.41,232.5z M306.25,246.99
			c-4.93,0.15-9.82,0.53-14.65,1.18V232.5c4.8-0.7,9.69-1.11,14.65-1.27V246.99z M222.12,446.34v-52.39
			c5.26-4.93,10.95-9.41,17.02-13.4c-4.98,7.97-8.5,16.65-10.36,25.73h-0.02c0,0-0.44,2.07-0.79,4.48c0,0.02-0.01,0.03-0.01,0.05
			l0,0c-0.24,1.63-0.44,3.41-0.44,4.8c0,0,4.6,0.3,9.38,0v45.91C231.93,456.9,226.95,451.84,222.12,446.34z M250.5,473.18
			c-1.72-1.36-3.46-2.79-5.22-4.26v-54.46c5.03-0.84,9.98-2.17,14.78-3.94v69.88C256.9,478.13,253.7,475.72,250.5,473.18z
			 M360.94,477.83v-67.28c4.83,1.78,9.79,3.09,14.78,3.92v51.75c-0.73,0.61-1.46,1.22-2.18,1.81
			C369.32,471.49,365.1,474.75,360.94,477.83z M384.1,458.91v-43.3c4.78,0.29,9.38,0,9.38,0c0-1.34-0.19-3.03-0.41-4.61l0.01,0
			c-0.01-0.07-0.03-0.13-0.04-0.2c-0.36-2.42-0.8-4.52-0.8-4.52h-0.02c-1.88-9.17-5.39-17.81-10.23-25.63
			c6.03,3.97,11.67,8.42,16.88,13.31v50.34C394.05,449.52,389.07,454.4,384.1,458.91z"/>
	</g>
</g>
</svg>
